# xmcd
#
# Track frame offsets: 
#        150
#        19812
#        45595
#        68177
#        91240
#        113795
#        134400
#        154330
#        173102
#        199140
#        216417
#
# Disc length: 3170 seconds
#
# Revision: 1
# Processed by: cddbd v1.5.2PL0 Copyright (c) Steve Scherf et al.
# Submitted via: ExactAudioCopy v0.95b4
#
DISCID=9c0c600b
DTITLE=Asmund Bjørken Sextet - Pot's On!
DYEAR=1992
DGENRE=Jazz
TTITLE0=Pot's On
TTITLE1=Salute to Charlie Christian
TTITLE2=Lover Man
TTITLE3=Wabash
TTITLE4=My Foolish Heart
TTITLE5=Unit 7
TTITLE6=Peace
TTITLE7=Bittersweet
TTITLE8=It Might as Well Be Spring
TTITLE9=Just in Time
TTITLE10=We'll Be Together Again
EXTD=YEAR: 1992
EXTT0=
EXTT1=
EXTT2=
EXTT3=
EXTT4=
EXTT5=
EXTT6=
EXTT7=
EXTT8=
EXTT9=
EXTT10=
PLAYORDER=
